<svg width="31" height="7" viewBox="0 0 31 7" fill="none" xmlns="http://www.w3.org/2000/svg">
<path d="M6.125 12.5C6.125 7.78595 6.125 5.42894 7.58946 3.96446C9.05394 2.5 11.411 2.5 16.125 2.5H18C22.714 2.5 25.0711 2.5 26.5355 3.96446C28 5.42894 28 7.78595 28 12.5V17.5C28 22.214 28 24.5711 26.5355 26.0355C25.0711 27.5 22.714 27.5 18 27.5H16.125C11.411 27.5 9.05394 27.5 7.58946 26.0355C6.125 24.5711 6.125 22.214 6.125 17.5V12.5Z" stroke="#0099B8" stroke-width="1.875"/>
<path d="M6.125 7.5H3M6.125 15H3M6.125 22.5H3" stroke="#0099B8" stroke-width="1.875" stroke-linecap="round" stroke-linejoin="round"/>
</svg>
