<svg width="31" height="30" viewBox="0 0 31 30" fill="none" xmlns="http://www.w3.org/2000/svg">
<path d="M6.125 12.5C6.125 7.78595 6.125 5.42894 7.58946 3.96446C9.05394 2.5 11.411 2.5 16.125 2.5H18C22.714 2.5 25.0711 2.5 26.5355 3.96446C28 5.42894 28 7.78595 28 12.5V17.5C28 22.214 28 24.5711 26.5355 26.0355C25.0711 27.5 22.714 27.5 18 27.5H16.125C11.411 27.5 9.05394 27.5 7.58946 26.0355C6.125 24.5711 6.125 22.214 6.125 17.5V12.5Z" stroke="#0099B8" stroke-width="1.875"/>
<path d="M19.5625 12.5003V15.6253C19.5625 16.6608 20.402 17.5003 21.4375 17.5003C22.473 17.5003 23.3125 16.6608 23.3125 15.6253V15C23.3125 11.5482 20.5142 8.75 17.0625 8.75C13.6108 8.75 10.8125 11.5482 10.8125 15C10.8125 18.4517 13.6108 21.25 17.0625 21.25C18.4698 21.25 19.7684 20.7849 20.8131 20M19.5625 15.0003C19.5625 16.381 18.4432 17.5003 17.0625 17.5003C15.6818 17.5003 14.5625 16.381 14.5625 15.0003C14.5625 13.6195 15.6818 12.5003 17.0625 12.5003C18.4432 12.5003 19.5625 13.6195 19.5625 15.0003Z" stroke="#0099B8" stroke-width="1.875" stroke-linecap="round"/>
<path d="M6.125 7.5H3M6.125 15H3M6.125 22.5H3" stroke="#0099B8" stroke-width="1.875" stroke-linecap="round" stroke-linejoin="round"/>
</svg>
