<svg width="156" height="134" viewBox="0 0 156 134" fill="none" xmlns="http://www.w3.org/2000/svg">
<path fill-rule="evenodd" clip-rule="evenodd" d="M143.345 38.3163C142.92 38.2908 142.467 38.2806 141.987 38.2857H123.037C107.517 38.2857 94.2402 50.7515 94.2402 67C94.2402 83.2484 107.524 95.7143 123.037 95.7143H141.987C142.467 95.7194 142.922 95.7092 143.353 95.6837C146.543 95.4874 149.554 94.1147 151.825 91.8213C154.096 89.5278 155.473 86.4701 155.698 83.2178C155.728 82.7584 155.728 82.2607 155.728 81.8012V52.1987C155.728 51.7393 155.728 51.2416 155.698 50.7822C155.473 47.5299 154.096 44.4722 151.825 42.1787C149.554 39.8853 146.535 38.5126 143.345 38.3163ZM121.378 74.6571C125.371 74.6571 128.605 71.2267 128.605 67C128.605 62.7732 125.371 59.3428 121.378 59.3428C117.378 59.3428 114.143 62.7732 114.143 67C114.143 71.2267 117.378 74.6571 121.378 74.6571Z" fill="#F5F6FB" fill-opacity="0.1"/>
<path fill-rule="evenodd" clip-rule="evenodd" d="M141.979 107.2C142.238 107.189 142.497 107.241 142.733 107.352C142.969 107.462 143.176 107.628 143.338 107.835C143.499 108.042 143.611 108.286 143.663 108.545C143.715 108.805 143.706 109.073 143.638 109.329C142.137 114.781 139.742 119.436 135.907 123.341C130.286 129.084 123.164 131.619 114.368 132.828C105.813 134 94.8928 134 81.0987 134H65.2482C51.454 134 40.5268 134 31.9787 132.828C23.1828 131.619 16.0606 129.076 10.4394 123.349C4.82569 117.614 2.33405 110.347 1.14826 101.373C8.94662e-07 92.6438 0 81.5026 0 67.4288L0 66.5712C0 52.4974 8.94662e-07 41.3486 1.14826 32.6194C2.33405 23.6453 4.82569 16.3786 10.4394 10.6434C16.0606 4.91588 23.1828 2.37371 31.9787 1.16389C40.5343 -3.42301e-07 51.454 0 65.2482 0L81.0987 0C94.8928 0 105.82 9.12803e-07 114.368 1.17154C123.164 2.38137 130.286 4.92354 135.907 10.6511C139.742 14.5715 142.137 19.2194 143.638 24.6713C143.706 24.9268 143.715 25.1952 143.663 25.4548C143.611 25.7143 143.499 25.9577 143.338 26.1651C143.176 26.3725 142.969 26.538 142.733 26.6484C142.497 26.7587 142.238 26.8106 141.979 26.8H123.036C101.745 26.8 82.9824 43.952 82.9824 67C82.9824 90.048 101.745 107.2 123.036 107.2L141.979 107.2ZM28.1436 30.6286C26.6508 30.6286 25.2191 31.2336 24.1635 32.3106C23.1079 33.3876 22.5149 34.8483 22.5149 36.3714C22.5149 37.8945 23.1079 39.3552 24.1635 40.4322C25.2191 41.5092 26.6508 42.1143 28.1436 42.1143H58.1635C59.6563 42.1143 61.088 41.5092 62.1436 40.4322C63.1992 39.3552 63.7922 37.8945 63.7922 36.3714C63.7922 34.8483 63.1992 33.3876 62.1436 32.3106C61.088 31.2336 59.6563 30.6286 58.1635 30.6286L28.1436 30.6286Z" fill="#F5F6FB" fill-opacity="0.1"/>
</svg>
