<svg width="31" height="31" viewBox="0 0 31 31" fill="none" xmlns="http://www.w3.org/2000/svg">
<path d="M21.75 15.5564C21.75 15.1243 21.75 14.9083 21.815 14.7158C22.004 14.1563 22.5023 13.9393 23.0014 13.7119C23.5625 13.4563 23.843 13.3285 24.121 13.306C24.4366 13.2805 24.7528 13.3485 25.0225 13.4999C25.3801 13.7005 25.6295 14.0819 25.8849 14.392C27.0641 15.8243 27.6536 16.5405 27.8694 17.3303C28.0435 17.9675 28.0435 18.634 27.8694 19.2713C27.5548 20.4232 26.5606 21.3888 25.8247 22.2825C25.4484 22.7397 25.2601 22.9683 25.0225 23.1017C24.7528 23.253 24.4366 23.321 24.121 23.2955C23.843 23.273 23.5625 23.1453 23.0014 22.8897C22.5023 22.6623 22.004 22.4453 21.815 21.8858C21.75 21.6933 21.75 21.4773 21.75 21.0452V15.5564Z" stroke="#0099B8" stroke-width="1.875"/>
<path d="M9.25 15.5565C9.25 15.0125 9.23473 14.5235 8.79489 14.141C8.63491 14.0019 8.42281 13.9052 7.99864 13.712C7.43751 13.4565 7.15695 13.3287 6.87895 13.3062C6.04489 13.2387 5.59615 13.808 5.11516 14.3922C3.93594 15.8245 3.34633 16.5406 3.13058 17.3304C2.95647 17.9677 2.95647 18.6342 3.13058 19.2715C3.44525 20.4234 4.4394 21.3889 5.17526 22.2827C5.63911 22.8461 6.08221 23.3601 6.87895 23.2957C7.15695 23.2732 7.43751 23.1454 7.99864 22.8899C8.42281 22.6966 8.63491 22.6 8.79489 22.4609C9.23473 22.0784 9.25 21.5895 9.25 21.0454V15.5565Z" stroke="#0099B8" stroke-width="1.875"/>
<path d="M25.5 13.9258V12.0508C25.5 7.21829 21.0229 3.30078 15.5 3.30078C9.97715 3.30078 5.5 7.21829 5.5 12.0508V13.9258" stroke="#0099B8" stroke-width="1.875" stroke-linecap="round" stroke-linejoin="round"/>
<path d="M25.5 22.6758C25.5 28.3008 20.5 28.3008 15.5 28.3008" stroke="#0099B8" stroke-width="1.875" stroke-linecap="round" stroke-linejoin="round"/>
</svg>
