<svg width="31" height="31" viewBox="0 0 31 31" fill="none" xmlns="http://www.w3.org/2000/svg">
<path d="M19.25 22.832C19.158 25.1469 17.2289 27.1125 14.6445 27.0493C14.0433 27.0345 13.3001 26.825 11.8139 26.4058C8.23701 25.3968 5.13194 23.7012 4.38695 19.9027C4.25 19.2045 4.25 18.4188 4.25 16.8474V14.7542C4.25 13.1828 4.25 12.3971 4.38695 11.6989C5.13194 7.90034 8.23701 6.20473 11.8139 5.19582C13.3001 4.77658 14.0433 4.56697 14.6445 4.55227C17.2289 4.48904 19.158 6.45462 19.25 8.76954" stroke="#0099B8" stroke-width="1.875" stroke-linecap="round"/>
<path d="M26.75 15.8008H13M26.75 15.8008C26.75 14.9255 24.2571 13.2902 23.625 12.6758M26.75 15.8008C26.75 16.676 24.2571 18.3114 23.625 18.9258" stroke="#0099B8" stroke-width="1.875" stroke-linecap="round" stroke-linejoin="round"/>
</svg>
