<svg width="31" height="29" viewBox="0 0 31 29" fill="none" xmlns="http://www.w3.org/2000/svg">
<path d="M16.6369 22.8005C16.5434 24.0264 16.3108 24.8284 15.7334 25.4164C14.7669 26.4005 13.2112 26.4005 10.1 26.4005C6.98874 26.4005 5.43309 26.4005 4.46655 25.4164C3.5 24.4323 3.5 22.8483 3.5 19.6805V13.9205C3.5 10.7526 3.5 9.16873 4.46655 8.18459C5.0542 7.58626 5.85961 7.35171 7.1 7.25977" stroke="#0099B8" stroke-width="1.8" stroke-linecap="round"/>
<path d="M10.0903 22.8008H10.1011" stroke="#0099B8" stroke-width="2.4" stroke-linecap="round" stroke-linejoin="round"/>
<path d="M20.3941 2.40137H17.8057C14.3249 2.40137 12.5845 2.40137 11.5515 3.48527C10.5184 4.56917 10.627 6.2813 10.8441 9.70556L10.9951 12.0872C11.045 12.8742 11.0699 13.2677 11.1583 13.5959C11.4994 14.8633 12.5423 15.8291 13.8469 16.0856C14.1847 16.152 14.5847 16.152 15.3847 16.152C16.4993 16.152 16.4842 17.0726 16.4842 17.9838C16.4842 18.6907 16.4842 19.0441 16.7145 19.1657C16.9447 19.2871 17.2431 19.091 17.8398 18.6989L21.3911 16.3653C21.6234 16.2126 21.8322 16.152 22.1057 16.152C23.5723 16.152 24.3057 16.152 24.8999 15.9314C26.959 15.1669 27.1301 13.2644 27.249 11.3893L27.3558 9.70556C27.5729 6.2813 27.6815 4.56917 26.6484 3.48527C25.6153 2.40137 23.875 2.40137 20.3941 2.40137Z" stroke="#0099B8" stroke-width="1.8" stroke-linejoin="round"/>
<path d="M17.701 10.1153C14.811 8.05812 19.0992 6.00098 19.0992 6.00098C19.0992 6.00098 23.3895 8.05812 20.4996 10.1153M17.701 10.1153H20.4996M17.701 10.1153L17.0008 13.2009M20.4996 10.1153L21.4785 13.2009" stroke="#0099B8" stroke-width="1.8" stroke-linecap="round" stroke-linejoin="round"/>
</svg>
