<svg width="31" height="31" viewBox="0 0 31 31" fill="none" xmlns="http://www.w3.org/2000/svg">
<path d="M27.1469 9.72752L26.5299 8.65677C26.0632 7.84698 25.83 7.4421 25.433 7.28063C25.036 7.11918 24.587 7.24658 23.6891 7.50138L22.1639 7.93101C21.5906 8.06321 20.9891 7.98821 20.4657 7.71927L20.0446 7.47631C19.5957 7.18882 19.2505 6.76495 19.0594 6.26671L18.642 5.01998C18.3675 4.19496 18.2302 3.78245 17.9035 3.5465C17.5769 3.31055 17.1429 3.31055 16.2749 3.31055H14.8814C14.0135 3.31055 13.5795 3.31055 13.2527 3.5465C12.9261 3.78245 12.7888 4.19496 12.5144 5.01998L12.0969 6.26671C11.9058 6.76495 11.5606 7.18882 11.1117 7.47631L10.6906 7.71927C10.1672 7.98821 9.56574 8.06321 8.99247 7.93101L7.46719 7.50138C6.56926 7.24658 6.12031 7.11918 5.72334 7.28063C5.32636 7.4421 5.09306 7.84698 4.62644 8.65677L4.00946 9.72752C3.57207 10.4866 3.35337 10.8661 3.39582 11.2701C3.43826 11.6742 3.73104 11.9998 4.31657 12.6509L5.60537 14.0918C5.92037 14.4905 6.14401 15.1855 6.14401 15.8104C6.14401 16.4355 5.92045 17.1303 5.60541 17.5292L4.31657 18.97C3.73104 19.6213 3.43827 19.9468 3.39582 20.3509C3.35337 20.7549 3.57207 21.1344 4.00946 21.8934L4.62642 22.9642C5.09304 23.7739 5.32636 24.1789 5.72334 24.3403C6.12031 24.5018 6.56927 24.3744 7.46721 24.1195L8.99242 23.6899C9.56579 23.5577 10.1673 23.6328 10.6908 23.9018L11.1119 24.1448C11.5606 24.4323 11.9058 24.856 12.0969 25.3543L12.5144 26.6012C12.7888 27.4262 12.9261 27.8387 13.2527 28.0747C13.5795 28.3105 14.0135 28.3105 14.8814 28.3105H16.2749C17.1429 28.3105 17.5769 28.3105 17.9035 28.0747C18.2302 27.8387 18.3675 27.4262 18.642 26.6012L19.0595 25.3543C19.2505 24.856 19.5956 24.4323 20.0445 24.1448L20.4655 23.9018C20.989 23.6328 21.5905 23.5577 22.1639 23.6899L23.6891 24.1195C24.587 24.3744 25.036 24.5018 25.433 24.3403C25.83 24.1789 26.0632 23.7739 26.5299 22.9642L27.1469 21.8934C27.5842 21.1344 27.8029 20.7549 27.7605 20.3509C27.718 19.9468 27.4252 19.6213 26.8397 18.97L25.5509 17.5292C25.2359 17.1303 25.0122 16.4355 25.0122 15.8104C25.0122 15.1855 25.236 14.4905 25.5509 14.0918L26.8397 12.6509C27.4252 11.9998 27.718 11.6742 27.7605 11.2701C27.8029 10.8661 27.5842 10.4866 27.1469 9.72752Z" stroke="#0099B8" stroke-width="1.875" stroke-linecap="round"/>
<path d="M19.8994 15.8008C19.8994 18.217 17.9406 20.1758 15.5244 20.1758C13.1081 20.1758 11.1494 18.217 11.1494 15.8008C11.1494 13.3845 13.1081 11.4258 15.5244 11.4258C17.9406 11.4258 19.8994 13.3845 19.8994 15.8008Z" stroke="#0099B8" stroke-width="1.875"/>
</svg>
