<svg width="31" height="30" viewBox="0 0 31 30" fill="none" xmlns="http://www.w3.org/2000/svg">
<path d="M15.5 27.497C11.2898 27.5476 6.96464 26.9545 5.24118 25.763C4.33578 25.1371 3.6447 24.2679 3.25545 23.2655C2.61988 21.6286 3.22779 19.518 4.44363 15.2966C5.79349 10.6099 7.68161 9.375 12.5627 9.375H17.2864C21.734 9.375 23.629 10.4633 24.875 13.75" stroke="#0099B8" stroke-width="1.875" stroke-linecap="round"/>
<path d="M9.25 10V7.95455C9.25 4.94209 11.7684 2.5 14.875 2.5C17.9816 2.5 20.5 4.94209 20.5 7.95455V10" stroke="#0099B8" stroke-width="1.875"/>
<path d="M18.1773 18.0522C19.6858 17.1385 21.0023 17.5067 21.7931 18.0934C22.1175 18.3339 22.2796 18.4541 22.375 18.4541C22.4704 18.4541 22.6325 18.3339 22.9569 18.0934C23.7478 17.5067 25.0643 17.1385 26.5728 18.0522C28.5524 19.2516 29.0003 23.2082 24.434 26.5462C23.5643 27.1821 23.1294 27.5 22.375 27.5C21.6206 27.5 21.1858 27.1821 20.316 26.5462C15.7498 23.2082 16.1976 19.2516 18.1773 18.0522Z" stroke="#0099B8" stroke-width="1.875" stroke-linecap="round"/>
<path d="M13.625 13.75H16.125" stroke="#0099B8" stroke-width="1.875" stroke-linecap="round"/>
</svg>
