<svg width="28" height="22" viewBox="0 0 28 22" fill="none" xmlns="http://www.w3.org/2000/svg">
<path fill-rule="evenodd" clip-rule="evenodd" d="M11.43 0.0625H15.32C17.6175 0.0625 19.4375 0.0625001 20.8612 0.25375C22.3263 0.45125 23.5125 0.86625 24.4487 1.80125C25.6037 2.9575 25.9725 4.505 26.1062 6.51375C26.8275 6.83 27.3725 7.50125 27.4313 8.35125C27.4375 8.4275 27.4375 8.50875 27.4375 8.58375V13.4162C27.4375 13.4912 27.4375 13.5725 27.4325 13.6475C27.3725 14.4975 26.8275 15.17 26.1062 15.4875C25.9725 17.495 25.6037 19.0425 24.4487 20.1987C23.5125 21.1337 22.3263 21.5487 20.8612 21.7463C19.4363 21.9375 17.6175 21.9375 15.32 21.9375H11.43C9.1325 21.9375 7.3125 21.9375 5.88875 21.7463C4.42375 21.5487 3.2375 21.1337 2.30125 20.1987C1.36625 19.2625 0.95125 18.0763 0.75375 16.6112C0.5625 15.1863 0.5625 13.3675 0.5625 11.07V10.93C0.5625 8.6325 0.5625 6.8125 0.75375 5.38875C0.95125 3.92375 1.36625 2.7375 2.30125 1.80125C3.2375 0.86625 4.42375 0.45125 5.88875 0.25375C7.31375 0.0625001 9.1325 0.0625 11.43 0.0625ZM24.21 15.6875H21.7875C19.1062 15.6875 16.8112 13.6525 16.8112 11C16.8112 8.3475 19.1063 6.3125 21.7863 6.3125H24.2087C24.0662 4.63625 23.745 3.75 23.1213 3.1275C22.5925 2.59875 21.8675 2.28125 20.61 2.1125C19.3263 1.94 17.6325 1.9375 15.2487 1.9375H11.4987C9.115 1.9375 7.4225 1.94 6.13625 2.1125C4.88 2.28125 4.155 2.59875 3.62625 3.1275C3.0975 3.65625 2.78125 4.38125 2.6125 5.6375C2.44 6.9225 2.4375 8.615 2.4375 10.9987C2.4375 13.3825 2.44 15.0762 2.6125 16.3612C2.78125 17.6175 3.09875 18.3425 3.6275 18.8713C4.15625 19.4 4.88125 19.7175 6.13875 19.8862C7.42375 20.0587 9.11625 20.0613 11.5 20.0613H15.25C17.6337 20.0613 19.3275 20.0587 20.6125 19.8862C21.8688 19.7175 22.5938 19.4 23.1225 18.8713C23.7463 18.2488 24.0675 17.3638 24.21 15.6862M5.5625 6C5.5625 5.75136 5.66127 5.5129 5.83709 5.33709C6.0129 5.16127 6.25136 5.0625 6.5 5.0625H11.5C11.7486 5.0625 11.9871 5.16127 12.1629 5.33709C12.3387 5.5129 12.4375 5.75136 12.4375 6C12.4375 6.24864 12.3387 6.4871 12.1629 6.66291C11.9871 6.83873 11.7486 6.9375 11.5 6.9375H6.5C6.25136 6.9375 6.0129 6.83873 5.83709 6.66291C5.66127 6.4871 5.5625 6.24864 5.5625 6ZM25.155 8.1875H21.7875C20.0075 8.1875 18.6862 9.51125 18.6862 11C18.6862 12.4888 20.0075 13.8125 21.7863 13.8125H25.1838C25.4412 13.7963 25.5525 13.6225 25.5613 13.5175V8.4825C25.5525 8.3775 25.4412 8.20375 25.1838 8.18875L25.155 8.1875Z" fill="#0099B8"/>
</svg>
